Phish
09-27-1991
The Warehouse, Rochester, NY

Thanks to Wayne Lane for the discs!


Source: Unknown AUD

Transfer: CDR > EAC > WAV > FLAC


Disc One:

 Set I: 
01. Runaway Jim				6:42
02. Cavern 				4:35
03. Reba				11:02
04. Buried Alive * > 			3:26
05. Esther **				8:36
06. Tweezer 				10:38
07. Paul & Silas #			3:13
08. It's Ice 				9:49
09. I Didn't Know **			3:25
10. Llama **				4:40

Disc Two:

 Set II: 
01. Possum				10:16
02. Tela 				6:31
03. Sparkle 				4:18
04. Split Open and Melt 		7:39
05. The Mango Song, 			7:29
06. Dinner and a Movie	 		3:37
07. Oh Kee Pa >				1:46
08. Suzy Greenberg ## 			4:31
09. Suzy (Cont.)			0:44
10. You Enjoy Myself **			17:10
11. Tweezer Reprise			3:35
 Encore:
12. Glide				4:09
13. Rocky Top				2:50


* Esther tease
** Clicking sounds 
# Tape Flip
## Tape Flip



Set I and the encore sound good for the most part, Set II sounds like it came from an MP3 source somewhere. 
I opened each file in Cool Edit Pro to edit out the small gaps after each song then removed the SBE's 
with shntool. Seemed to do the trick, set II flows without interruption except for the tape 
flip during Suzy.



shtool output:

    length     expanded size    cdr  WAVE problems  fmt   ratio  filename
     6:42.09       70934012 B   ---   --   -----    wav  1.0000  c:\shows\ph1991
-09-27.flac\ph91-09-27d1t01.wav
     4:35.61       48653516 B   ---   --   -----    wav  1.0000  c:\shows\ph1991
-09-27.flac\ph91-09-27d1t02.wav
    11:02.27      116840348 B   ---   --   -----    wav  1.0000  c:\shows\ph1991
-09-27.flac\ph91-09-27d1t03.wav
     3:26.30       36409004 B   ---   --   -----    wav  1.0000  c:\shows\ph1991
-09-27.flac\ph91-09-27d1t04.wav
     8:36.34       91102412 B   ---   --   -----    wav  1.0000  c:\shows\ph1991
-09-27.flac\ph91-09-27d1t05.wav
    10:38.28      112609100 B   ---   --   -----    wav  1.0000  c:\shows\ph1991
-09-27.flac\ph91-09-27d1t06.wav
     3:13.07       34061708 B   ---   --   -----    wav  1.0000  c:\shows\ph1991
-09-27.flac\ph91-09-27d1t07.wav
     9:49.30      103970204 B   ---   --   -----    wav  1.0000  c:\shows\ph1991
-09-27.flac\ph91-09-27d1t08.wav
     3:25.32       36237308 B   ---   --   -----    wav  1.0000  c:\shows\ph1991
-09-27.flac\ph91-09-27d1t09.wav
     4:40.28       49457900 B   ---   --   -----    wav  1.0000  c:\shows\ph1991
-09-27.flac\ph91-09-27d1t10.wav
     4:09.55       44053004 B   ---   --   -----    wav  1.0000  c:\shows\ph1991
-09-27.flac\ph91-09-27d1t11.wav
     2:50.04       29997452 B   ---   --   -----    wav  1.0000  c:\shows\ph1991
-09-27.flac\ph91-09-27d1t12.wav
    10:16.22      108714188 B   ---   --   -----    wav  1.0000  c:\shows\ph1991
-09-27.flac\ph91-09-27d2t01.wav
     6:31.59       69111212 B   ---   --   -----    wav  1.0000  c:\shows\ph1991
-09-27.flac\ph91-09-27d2t02.wav
     4:18.64       45661772 B   ---   --   -----    wav  1.0000  c:\shows\ph1991
-09-27.flac\ph91-09-27d2t03.wav
     7:39.02       80972348 B   ---   --   -----    wav  1.0000  c:\shows\ph1991
-09-27.flac\ph91-09-27d2t04.wav
     7:29.52       79325948 B   ---   --   -----    wav  1.0000  c:\shows\ph1991
-09-27.flac\ph91-09-27d2t05.wav
     3:37.02       38283548 B   ---   --   -----    wav  1.0000  c:\shows\ph1991
-09-27.flac\ph91-09-27d2t06.wav
     1:46.60       18839564 B   ---   --   -----    wav  1.0000  c:\shows\ph1991
-09-27.flac\ph91-09-27d2t07.wav
     4:31.28       47870300 B   ---   --   -----    wav  1.0000  c:\shows\ph1991
-09-27.flac\ph91-09-27d2t08.wav
     0:44.09        7782812 B   ---   --   -----    wav  1.0000  c:\shows\ph1991
-09-27.flac\ph91-09-27d2t09.wav
    17:10.36      181776716 B   ---   --   -----    wav  1.0000  c:\shows\ph1991
-09-27.flac\ph91-09-27d2t10.wav
     3:35.37       38013068 B   ---   --   -----    wav  1.0000  c:\shows\ph1991
-09-27.flac\ph91-09-27d2t11.wav
   140:50.41     1490677444 B                            1.0000  (23 files)

